<?xml version="1.0" encoding="UTF-8" standalone="no"?>
<svg
   xmlns:dc="http://purl.org/dc/elements/1.1/"
   xmlns:cc="http://creativecommons.org/ns#"
   xmlns:rdf="http://www.w3.org/1999/02/22-rdf-syntax-ns#"
   xmlns:svg="http://www.w3.org/2000/svg"
   xmlns="http://www.w3.org/2000/svg"
   id="svg8"
   version="1.1"
   viewBox="0 0 32.191675 32.191679"
   height="121.66933"
   width="121.66933">
  <defs
     id="defs2" />
  <metadata
     id="metadata5">
    <rdf:RDF>
      <cc:Work
         rdf:about="">
        <dc:format>image/svg+xml</dc:format>
        <dc:type
           rdf:resource="http://purl.org/dc/dcmitype/StillImage" />
        <dc:title></dc:title>
      </cc:Work>
    </rdf:RDF>
  </metadata>
  <g
     transform="translate(43.954675,-97.207908)"
     id="layer1">
    <g
       transform="matrix(0.35277777,0,0,-0.35277777,-60.451163,142.76034)"
       id="g10">
      <g
         transform="scale(0.1)"
         id="g12">
        <path
           id="path16"
           style="fill:#ffffff;fill-opacity:1;fill-rule:nonzero;stroke:none"
           d="m 832.95049,980.266 167.35101,242.454 c 31.633,45.69 72.477,68.53 122.557,68.53 40.85,0 76.19,-14.5 106.08,-43.48 29.86,-28.99 44.79,-63.7 44.79,-104.11 0,-29.86 -7.89,-56.23 -23.71,-79.06 l -150.89,-219.405 184.49,-233.894 c 18.45,-23.281 27.67,-50.52 27.67,-81.699 0,-41.301 -14.48,-76.75 -43.48,-106.403 -28.99,-29.668 -64.15,-44.469 -105.42,-44.469 -45.25,0 -79.72,14.7 -103.45,44.141 L 832.95049,704.859 V 549.352 c 0,-44.352 -7.684,-78.832 -23.055,-103.442 -28.117,-44.781 -68.969,-67.18 -122.551,-67.18 -48.762,0 -86.543,16.461 -113.328,49.411 -25.039,30.308 -37.551,70.507 -37.551,120.57 v 576.509 c 0,47.42 12.727,86.52 38.211,117.27 26.789,32.5 63.684,48.76 110.688,48.76 44.8,0 82.136,-16.26 112.007,-48.76 16.68,-18.01 27.231,-36.23 31.614,-54.69 2.644,-11.42 3.965,-32.71 3.965,-63.91 V 980.266" />
      </g>
    </g>
  </g>
</svg>
